<?xml version="1.0" encoding="UTF-8"?>
<svg width="96px" height="92px" viewBox="0 0 96 92" version="1.1" xmlns="http://www.w3.org/2000/svg" xmlns:xlink="http://www.w3.org/1999/xlink">
    <!-- Generator: Sketch 63.1 (92452) - https://sketch.com -->
    <title>3up / Three</title>
    <desc>Created with Sketch.</desc>
    <defs>
        <path d="M41.6,104 C64.5750456,104 83.2,85.3750456 83.2,62.4 L83.2,0 L0,0 L0,62.4 C0,85.3750456 18.6249544,104 41.6,104 Z" id="path-1"></path>
        <filter x="-18.3%" y="-15.6%" width="137.4%" height="131.2%" filterUnits="objectBoundingBox" id="filter-3">
            <feOffset dx="0" dy="2" in="SourceAlpha" result="shadowOffsetOuter1"></feOffset>
            <feGaussianBlur stdDeviation="2" in="shadowOffsetOuter1" result="shadowBlurOuter1"></feGaussianBlur>
            <feColorMatrix values="0 0 0 0 0   0 0 0 0 0   0 0 0 0 0  0 0 0 0.24 0" type="matrix" in="shadowBlurOuter1" result="shadowMatrixOuter1"></feColorMatrix>
            <feMerge>
                <feMergeNode in="shadowMatrixOuter1"></feMergeNode>
                <feMergeNode in="SourceGraphic"></feMergeNode>
            </feMerge>
        </filter>
        <polygon id="path-4" points="8.944 16.224 4.576 11.856 3.12 13.312 8.944 19.136 21.424 6.656 19.968 5.2"></polygon>
    </defs>
    <g id="Page-1" stroke="none" stroke-width="1" fill="none" fill-rule="evenodd">
        <g id="SITE-8830---A" transform="translate(-658.000000, -122.000000)">
            <g id="Group-3" transform="translate(28.000000, 24.000000)">
                <g id="Desktop" transform="translate(16.000000, 16.000000)">
                    <g id="3up-/-Three" transform="translate(606.000000, 68.000000)">
                        <circle id="Oval" stroke="#C0CAD5" stroke-width="2" fill="#FFFFFF" cx="52" cy="62.4" r="42.6"></circle>
                        <g id="Group-3" stroke-width="1" transform="translate(10.400000, 0.000000)">
                            <mask id="mask-2" fill="white">
                                <use xlink:href="#path-1"></use>
                            </mask>
                            <g id="Oval"></g>
                        </g>
                        <g id="Group" filter="url(#filter-3)" stroke-width="1" transform="translate(37.440000, 16.640000)">
                            <path d="M24.4137465,14.6350206 L24.4137465,8.30273138 C24.4137465,5.96836458 22.4296232,4.06895775 19.9924037,4.06895775 L7.47306108,4.06895775 C5.03511075,4.06895775 3.05171831,5.96836458 3.05171831,8.30273138 L3.05171831,15.2585915 C5.97747794,12.7205669 9.85875917,11.1738871 14.1174988,11.1738871 C18.0137615,11.1738871 21.5928567,12.4710686 24.4137465,14.6350206" id="Fill-227" fill="#35B4CF"></path>
                            <path d="M40.9640669,23.019766 C42.3164611,21.796813 44.1400351,21.1871244 46.1326583,21.2783095 C49.7905967,21.445661 52.7975156,24.4372472 52.9665649,28.0732081 L52.9665649,32.4154064 C52.9665649,34.2176529 51.8227847,35.8242985 50.1143081,36.425405 L38.9246854,40.3599523 C35.9861056,41.3926682 34.0222566,44.1536097 34.0222566,47.2510422 L34.0222566,65.3614743 C34.0222566,67.428694 35.7091525,69.1043542 37.7880988,69.1043542 L53.797424,69.1043542 C55.8763703,69.1043542 57.5632662,67.428694 57.5632662,65.3614743 L57.5632662,29.0605102 C57.5632662,23.1742443 53.2830826,18.0364113 47.4203102,17.2236124 C42.456736,16.5359695 37.9787288,19.0598299 35.665991,22.9714915 L40.9640669,23.019766 Z" id="Path" fill="#FFFFFF"></path>
                            <path d="M28.2211565,18.4705239 L28.2211565,7.90235043 C28.2211565,3.53798159 24.6639283,0 20.2722442,0 L7.94891233,0 C3.5586669,0 0,3.53798159 0,7.90235043 L0,66.8848017 C0,71.2491706 3.5586669,76.2929577 7.94891233,76.2929577 L20.2722442,76.2929577 C24.6639283,76.2929577 28.2211565,71.2491706 28.2211565,66.8848017 L28.2211565,35.2525143 L28.2211565,18.4705239 Z" id="Path" fill="#FFFFFF"></path>
                            <path d="M36.5061328,23.019766 L22.0017747,23.019766 C20.5918319,20.4415522 17.8402853,18.6915136 14.6815818,18.6915136 C10.0816433,18.6915136 6.35284814,22.3986346 6.35284814,26.9718352 C6.35284814,31.5450358 10.0816433,35.2525143 14.6815818,35.2525143 C17.8402853,35.2525143 20.5918319,33.5024758 22.0017747,30.9239044 L52.9665649,30.9239044 L61.3219148,30.8627567 C63.8276805,29.8269956 65.0805634,28.5300218 65.0805634,26.9718352 C65.0805634,24.6345553 63.2792438,22.0224514 59.3868402,22.0224514 C58.2293248,22.0224514 58.3985543,22.5710838 55.1910938,22.0224514 C53.8399123,21.7913334 51.6715861,19.1231395 49.4644922,18.6915136 C47.2623367,18.2608535 44.0324497,18.5891108 42.4536328,18.6915136 C41.4513862,18.7565198 39.4688862,20.1992706 36.5061328,23.019766 Z" id="Path" fill="#FFFFFF"></path>
                        </g>
                        <g id="Group" stroke-width="1" transform="translate(37.440000, 16.640000)">
                            <path d="M28.2211565,18.4705239 L28.2211565,7.90235043 C28.2211565,3.53798159 24.6639283,0 20.2722442,0 L7.94891233,0 C3.5586669,0 0,3.53798159 0,7.90235043 L0,66.8848017 C0,71.2491706 3.5586669,76.2929577 7.94891233,76.2929577 L20.2722442,76.2929577 C24.6639283,76.2929577 28.2211565,71.2491706 28.2211565,66.8848017 L28.2211565,35.2525143 M30.5640669,23.019766 L22.0017747,23.019766 C20.5918319,20.4415522 17.8402853,18.6915136 14.6815818,18.6915136 C10.0816433,18.6915136 6.35284814,22.3986346 6.35284814,26.9718352 C6.35284814,31.5450358 10.0816433,35.2525143 14.6815818,35.2525143 C17.8402853,35.2525143 20.5918319,33.5024758 22.0017747,30.9239044 L52.9665649,30.9239044 M57.5632662,30.8627567 L60.6349273,30.8627567 C63.0879401,30.8627567 65.0805634,28.8838614 65.0805634,26.4426041 C65.0805634,24.0013467 63.0879401,22.0224514 60.6349273,22.0224514 L59.3868402,22.0224514" id="Stroke-226" stroke="#007AFF" stroke-width="2" fill="#FFFFFF" stroke-linecap="round" stroke-linejoin="round"></path>
                            <path d="M40.7418103,22.548928 C42.0942044,21.325975 43.9177784,20.7162865 45.9104017,20.8074716 C49.5683401,20.974823 52.575259,23.9664092 52.7443082,27.6023701 L52.7443082,31.9445684 C52.7443082,33.746815 51.6005281,35.3534606 49.8920515,35.954567 L38.7024287,39.8891143 C35.7638489,40.9218302 33.8,43.6827718 33.8,46.7802042 L33.8,64.8906363 C33.8,66.957856 35.4868959,68.6335162 37.5658422,68.6335162 L53.5751674,68.6335162 C55.6541137,68.6335162 57.3410096,66.957856 57.3410096,64.8906363 L57.3410096,28.5896722 C57.3410096,22.7034063 53.060826,17.5655733 47.1980536,16.7527744 C42.2344794,16.0651316 37.7564722,18.5889919 35.4437344,22.5006536 L40.7418103,22.548928 Z" id="Path" stroke="#00AA00" fill="#00AA00" stroke-linecap="round" stroke-linejoin="round"></path>
                            <g id="check" transform="translate(33.280000, 42.640000)">
                                <mask id="mask-5" fill="white">
                                    <use xlink:href="#path-4"></use>
                                </mask>
                                <use fill="#001833" fill-rule="nonzero" xlink:href="#path-4"></use>
                                <g id="color-/-base-/-white" mask="url(#mask-5)" fill="#FFFFFF" fill-rule="evenodd">
                                    <rect id="Base" x="0" y="0" width="24.96" height="24.96"></rect>
                                </g>
                            </g>
                            <path d="M19.5960471,53.0661479 C19.5960471,50.0645493 16.9783012,47.6712088 13.8875771,48.0220032 C11.6212379,48.2791094 9.75594108,50.0763497 9.4343878,52.3212909 C9.0973683,54.6770846 10.3904154,56.7725538 12.3503078,57.673677 L12.3503078,62.6302126 C12.3503078,63.8045335 13.3077741,64.7560768 14.4889609,64.7560768 C15.669788,64.7560768 16.6272543,63.8045335 16.6272543,62.6302126 L16.6272543,57.673677 C18.3788924,56.8687451 19.5960471,55.1111971 19.5960471,53.0661479 Z" id="Path" stroke="#001833" stroke-width="2" fill="#FFFFFF" stroke-linecap="round" stroke-linejoin="round"></path>
                            <path d="M24.8980282,14.6350206 L24.8980282,8.30273138 C24.8980282,5.96836458 22.9139049,4.06895775 20.4766854,4.06895775 L7.95734277,4.06895775 C5.51939244,4.06895775 3.536,5.96836458 3.536,8.30273138 L3.536,15.2585915 C6.46175963,12.7205669 10.3430409,11.1738871 14.6017805,11.1738871 C18.4980432,11.1738871 22.0771384,12.4710686 24.8980282,14.6350206" id="Fill-227" fill="#B2D7FF"></path>
                        </g>
                    </g>
                </g>
            </g>
        </g>
    </g>
</svg>