<?xml version="1.0" encoding="UTF-8"?>
<svg width="93px" height="92px" viewBox="0 0 93 92" version="1.1" xmlns="http://www.w3.org/2000/svg" xmlns:xlink="http://www.w3.org/1999/xlink">
    <!-- Generator: Sketch 63.1 (92452) - https://sketch.com -->
    <title>3up / Tow</title>
    <desc>Created with Sketch.</desc>
    <defs>
        <path d="M41.6,104 C64.5750456,104 83.2,85.3750456 83.2,62.4 L83.2,0 L0,0 L0,62.4 C0,85.3750456 18.6249544,104 41.6,104 Z" id="path-1"></path>
        <filter x="-23.1%" y="-14.5%" width="146.0%" height="128.6%" filterUnits="objectBoundingBox" id="filter-3">
            <feOffset dx="0" dy="2" in="SourceAlpha" result="shadowOffsetOuter1"></feOffset>
            <feGaussianBlur stdDeviation="2" in="shadowOffsetOuter1" result="shadowBlurOuter1"></feGaussianBlur>
            <feColorMatrix values="0 0 0 0 0   0 0 0 0 0   0 0 0 0 0  0 0 0 0.24 0" type="matrix" in="shadowBlurOuter1" result="shadowMatrixOuter1"></feColorMatrix>
            <feMerge>
                <feMergeNode in="shadowMatrixOuter1"></feMergeNode>
                <feMergeNode in="SourceGraphic"></feMergeNode>
            </feMerge>
        </filter>
        <path d="M42.64,14.56 L32.24,14.56 L32.24,17.68 C23.8754286,16.6305208 19.8887619,11.8951693 20.28,3.47394531 C20.0846615,1.15798177 19.3251432,0 18.0014453,0 C16.0158984,0 11.9666016,4.16 14.56,14.56 L3.72542857,14.56 C1.24180952,14.6508762 0,15.5175429 0,17.16 C0.139627576,18.8933333 0.688103767,19.76 1.64542857,19.76 L1.64542857,24.96 L2.92042969,30.0587857 L6.24,30.16 L6.708,33.6685143 C7.07447619,35.3286975 9.2547619,35.892526 13.2488571,35.36 C17.2429524,34.827474 20.4533333,34.2636454 22.88,33.6685143 C26.1966927,32.4571619 29.3166927,32.1543238 32.24,32.76 L32.24,35.36 L42.64,35.36 L42.64,14.56 Z" id="path-4"></path>
        <filter x="-16.4%" y="-14.1%" width="132.8%" height="139.4%" filterUnits="objectBoundingBox" id="filter-5">
            <feOffset dx="0" dy="2" in="SourceAlpha" result="shadowOffsetOuter1"></feOffset>
            <feGaussianBlur stdDeviation="2" in="shadowOffsetOuter1" result="shadowBlurOuter1"></feGaussianBlur>
            <feColorMatrix values="0 0 0 0 0   0 0 0 0 0   0 0 0 0 0  0 0 0 0.24 0" type="matrix" in="shadowBlurOuter1"></feColorMatrix>
        </filter>
        <circle id="path-6" cx="16.64" cy="16.64" r="16.64"></circle>
        <filter x="-21.0%" y="-15.0%" width="142.1%" height="142.1%" filterUnits="objectBoundingBox" id="filter-7">
            <feOffset dx="0" dy="2" in="SourceAlpha" result="shadowOffsetOuter1"></feOffset>
            <feGaussianBlur stdDeviation="2" in="shadowOffsetOuter1" result="shadowBlurOuter1"></feGaussianBlur>
            <feColorMatrix values="0 0 0 0 0   0 0 0 0 0   0 0 0 0 0  0 0 0 0.24 0" type="matrix" in="shadowBlurOuter1"></feColorMatrix>
        </filter>
        <polygon id="path-8" points="8.944 16.224 4.576 11.856 3.12 13.312 8.944 19.136 21.424 6.656 19.968 5.2"></polygon>
    </defs>
    <g id="Page-1" stroke="none" stroke-width="1" fill="none" fill-rule="evenodd">
        <g id="SITE-8830---A" transform="translate(-401.000000, -122.000000)">
            <g id="Group-3" transform="translate(28.000000, 24.000000)">
                <g id="Desktop" transform="translate(16.000000, 16.000000)">
                    <g id="3up-/-Two" transform="translate(354.000000, 68.000000)">
                        <circle id="Oval" stroke="#C0CAD5" stroke-width="2" fill="#FFFFFF" cx="52" cy="62.4" r="42.6"></circle>
                        <g id="Group-3" stroke-width="1" transform="translate(10.400000, 0.000000)">
                            <mask id="mask-2" fill="white">
                                <use xlink:href="#path-1"></use>
                            </mask>
                            <g id="Oval"></g>
                            <g id="Group-2" filter="url(#filter-3)" mask="url(#mask-2)">
                                <g transform="translate(13.520000, 16.640000)">
                                    <path d="M10.1288571,18.2872857 C10.1288571,8.6112 17.9734286,0.767371429 27.6491429,0.767371429 C37.3248571,0.767371429 45.1694286,8.6112 45.1694286,18.2872857 M55.302,88.4 L55.302,22.0595143 C55.302,19.9761714 53.612,18.2872857 51.5282857,18.2872857 L3.77,18.2872857 C1.68628571,18.2872857 0,19.9761714 0,22.0595143 L0,88.4 L55.302,88.4 Z" id="Stroke-63" stroke="#007AFF" stroke-width="2" fill="#E8F2FF" stroke-linecap="round" stroke-linejoin="round"></path>
                                    <g id="Group" stroke="none" stroke-width="1" fill="none" transform="translate(10.128857, 25.715857)">
                                        <path d="M4.03,62.6841429 L4.03,41.2828 C4.03,40.1503143 4.94742857,39.2321429 6.08028571,39.2321429 L28.1208571,39.2321429 C29.2537143,39.2321429 30.1711429,40.1503143 30.1711429,41.2828 L30.1711429,62.6841429 L4.03,62.6841429 Z" id="Path" stroke="#007AFF" stroke-width="2" fill-opacity="0.4" fill="#B2D7FF" stroke-linecap="round" stroke-linejoin="round"></path>
                                        <line x1="17.1005714" y1="39.2321429" x2="17.1005714" y2="62.5114286" id="Path" stroke="#007AFF" stroke-width="2" fill="#FFFFFF" stroke-linecap="round" stroke-linejoin="round"></line>
                                        <path d="M6.22514286,7.21945714 L0.995428571,7.21945714 C0.445714286,7.21945714 0,6.77337143 0,6.22328571 L0,0.996171429 C0,0.446085714 0.445714286,0 0.995428571,0 L6.22514286,0 C6.77485714,0 7.22057143,0.446085714 7.22057143,0.996171429 L7.22057143,6.22328571 C7.22057143,6.77337143 6.77485714,7.21945714 6.22514286,7.21945714" id="Fill-64" fill-opacity="0.3" fill="#007AFF"></path>
                                        <path d="M20.1351429,7.21945714 L14.9054286,7.21945714 C14.3557143,7.21945714 13.91,6.77337143 13.91,6.22328571 L13.91,0.996171429 C13.91,0.446085714 14.3557143,0 14.9054286,0 L20.1351429,0 C20.6848571,0 21.1305714,0.446085714 21.1305714,0.996171429 L21.1305714,6.22328571 C21.1305714,6.77337143 20.6848571,7.21945714 20.1351429,7.21945714" id="Fill-65" fill-opacity="0.3" fill="#007AFF"></path>
                                        <path d="M34.0451429,7.21945714 L28.8191429,7.21945714 C28.2657143,7.21945714 27.82,6.77337143 27.82,6.22328571 L27.82,0.996171429 C27.82,0.446085714 28.2657143,0 28.8191429,0 L34.0451429,0 C34.5948571,0 35.0405714,0.446085714 35.0405714,0.996171429 L35.0405714,6.22328571 C35.0405714,6.77337143 34.5948571,7.21945714 34.0451429,7.21945714" id="Fill-66" fill-opacity="0.3" fill="#007AFF"></path>
                                        <path d="M6.22514286,20.0660571 L0.995428571,20.0660571 C0.445714286,20.0660571 0,19.6199714 0,19.0698857 L0,13.8431429 C0,13.2926857 0.445714286,12.8466 0.995428571,12.8466 L6.22514286,12.8466 C6.77485714,12.8466 7.22057143,13.2926857 7.22057143,13.8431429 L7.22057143,19.0698857 C7.22057143,19.6199714 6.77485714,20.0660571 6.22514286,20.0660571" id="Fill-67" fill-opacity="0.3" fill="#007AFF"></path>
                                        <path d="M20.1351429,20.0660571 L14.9054286,20.0660571 C14.3557143,20.0660571 13.91,19.6199714 13.91,19.0698857 L13.91,13.8431429 C13.91,13.2926857 14.3557143,12.8466 14.9054286,12.8466 L20.1351429,12.8466 C20.6848571,12.8466 21.1305714,13.2926857 21.1305714,13.8431429 L21.1305714,19.0698857 C21.1305714,19.6199714 20.6848571,20.0660571 20.1351429,20.0660571" id="Fill-68" fill-opacity="0.3" fill="#007AFF"></path>
                                        <path d="M34.0451429,20.0660571 L28.8191429,20.0660571 C28.2657143,20.0660571 27.82,19.6199714 27.82,19.0698857 L27.82,13.8431429 C27.82,13.2926857 28.2657143,12.8466 28.8191429,12.8466 L34.0451429,12.8466 C34.5948571,12.8466 35.0405714,13.2926857 35.0405714,13.8431429 L35.0405714,19.0698857 C35.0405714,19.6199714 34.5948571,20.0660571 34.0451429,20.0660571" id="Fill-69" fill-opacity="0.3" fill="#007AFF"></path>
                                        <path d="M6.22514286,32.9126571 L0.995428571,32.9126571 C0.445714286,32.9126571 0,32.4665714 0,31.9164857 L0,26.6897429 C0,26.1392857 0.445714286,25.6932 0.995428571,25.6932 L6.22514286,25.6932 C6.77485714,25.6932 7.22057143,26.1392857 7.22057143,26.6897429 L7.22057143,31.9164857 C7.22057143,32.4665714 6.77485714,32.9126571 6.22514286,32.9126571" id="Fill-70" fill-opacity="0.3" fill="#007AFF"></path>
                                        <path d="M20.1351429,32.9126571 L14.9054286,32.9126571 C14.3557143,32.9126571 13.91,32.4665714 13.91,31.9164857 L13.91,26.6897429 C13.91,26.1392857 14.3557143,25.6932 14.9054286,25.6932 L20.1351429,25.6932 C20.6848571,25.6932 21.1305714,26.1392857 21.1305714,26.6897429 L21.1305714,31.9164857 C21.1305714,32.4665714 20.6848571,32.9126571 20.1351429,32.9126571" id="Fill-71" fill-opacity="0.3" fill="#007AFF"></path>
                                        <path d="M34.0451429,32.9126571 L28.8191429,32.9126571 C28.2657143,32.9126571 27.82,32.4665714 27.82,31.9164857 L27.82,26.6897429 C27.82,26.1392857 28.2657143,25.6932 28.8191429,25.6932 L34.0451429,25.6932 C34.5948571,25.6932 35.0405714,26.1392857 35.0405714,26.6897429 L35.0405714,31.9164857 C35.0405714,32.4665714 34.5948571,32.9126571 34.0451429,32.9126571" id="Fill-72" fill-opacity="0.3" fill="#007AFF"></path>
                                    </g>
                                </g>
                            </g>
                            <g id="Group-4" mask="url(#mask-2)">
                                <g transform="translate(41.600000, 41.600000)">
                                    <g id="Path-2" stroke="none" fill="none">
                                        <use fill="black" fill-opacity="1" filter="url(#filter-5)" xlink:href="#path-4"></use>
                                        <use fill="#FFFFFF" fill-rule="evenodd" xlink:href="#path-4"></use>
                                    </g>
                                    <path d="M14.0209115,13.8869339 C12.9884496,8.95956046 13.6205691,4.76551311 15.2886622,1.45290206 C16.556413,-1.05774644 20.2508003,-0.107673698 20.1981236,2.72086987 C20.1489588,5.21345615 20.4299008,7.29783627 20.9180375,9.03542178 C22.361377,14.1867668 27.0250142,17.68 32.24,17.68 M7.24141578,19.76 L2.7177484,19.76 C1.21695522,19.76 0,18.5965297 0,17.158304 C0,15.7234703 1.21695522,14.56 2.7177484,14.56 L16.64,14.56 M1.04,19.76 L1.04,22.358304 C1.04,23.7965297 2.26343949,24.96 3.7722293,24.96 L8.32,24.96 M2.08,24.96 L2.08,27.558304 C2.08,28.9965297 3.30284035,30.16 4.81445642,30.16 L9.36,30.16 M6.24,30.16 L6.24,32.758304 C6.24,34.1965297 7.45847247,35.36 8.96113677,35.36 L13.4939964,35.36 C16.0233037,35.36 18.3430195,34.9461709 20.6343162,34.2779387 C22.9291652,33.6063144 25.2346714,32.8125766 27.6289876,32.8024005 L32.24,32.8024005 M42.64,35.36 L32.24,35.36 L32.24,14.56 L42.64,14.56" id="Stroke-162" stroke="#001833" stroke-width="2" fill="#FFFFFF" fill-rule="evenodd" stroke-linecap="round" stroke-linejoin="round"></path>
                                </g>
                            </g>
                        </g>
                        <g id="Group-5" stroke-width="1" transform="translate(6.240000, 20.800000)">
                            <g id="Oval">
                                <use fill="black" fill-opacity="1" filter="url(#filter-7)" xlink:href="#path-6"></use>
                                <use fill="#00AA00" fill-rule="evenodd" xlink:href="#path-6"></use>
                            </g>
                            <g id="check" transform="translate(4.160000, 4.160000)">
                                <mask id="mask-9" fill="white">
                                    <use xlink:href="#path-8"></use>
                                </mask>
                                <use fill="#001833" fill-rule="nonzero" xlink:href="#path-8"></use>
                                <g id="color-/-base-/-white" mask="url(#mask-9)" fill="#FFFFFF" fill-rule="evenodd">
                                    <rect id="Base" x="0" y="0" width="24.96" height="24.96"></rect>
                                </g>
                            </g>
                        </g>
                    </g>
                </g>
            </g>
        </g>
    </g>
</svg>